<?xml version="1.0" encoding="UTF-8"?> <!-- Generator: Adobe Illustrator 25.2.0, SVG Export Plug-In . SVG Version: 6.00 Build 0) --> <svg xmlns="http://www.w3.org/2000/svg" xmlns:xlink="http://www.w3.org/1999/xlink" version="1.1" id="Layer_1" x="0px" y="0px" viewBox="0 0 2057.83 2014.43" style="enable-background:new 0 0 2057.83 2014.43;" xml:space="preserve"> <path d="M1957.26,923.13c0.81,509.99-407.77,920.69-911.12,928.19c-520.79,7.77-936.05-410.91-940.26-917 C101.61,422.26,511.41,7.85,1016.89,0.11C1532.88-7.79,1955.31,406.9,1957.26,923.13z M1029.07,1827.84 c500.16-0.14,903.82-402.28,904.16-901.44c0.34-500.6-403.83-900.44-897.78-902.53c-498.97-2.11-905.94,400.76-905.68,902.65 C130.04,1422.25,529.92,1825.1,1029.07,1827.84z"></path> <path d="M1457.57,1783.63c9.44-4.7,17.96-8.94,27.34-13.61c15.14,18.99,29.97,37.58,44.79,56.18c0.71-0.36,1.43-0.72,2.14-1.08 c-7.04-22.23-14.08-44.46-21.41-67.59c9.02-4.42,17.51-8.57,27.46-13.45c13.9,44.56,26.36,88.56,39.84,133.69 c-9.2,4.66-18.26,9.24-28.57,14.46c-17.58-22.06-35.06-44-52.55-65.95c-0.63,0.26-1.26,0.51-1.89,0.77 c6.61,26.76,13.23,53.52,20.17,81.62c-9.16,4.65-18.21,9.23-28.48,14.44c-27.33-37.68-54.37-74.96-81.37-112.19 c1.22-1.4,1.72-2.42,2.52-2.83c7.7-3.87,15.45-7.64,24.35-12.01c13.88,19.98,27.6,39.74,41.33,59.5c0.55-0.24,1.09-0.47,1.64-0.71 C1469.15,1831.29,1463.42,1807.71,1457.57,1783.63z"></path> <path d="M124.28,1388.29c-31.32,7.28-62.64,14.57-94.61,22.01c-3.4-7.52-6.38-14.11-9.93-21.96c26.28-18.92,52.43-37.74,78.57-56.57 c-0.35-0.57-0.7-1.14-1.06-1.71c-28.33,12.77-56.66,25.54-86.15,38.83c-3.75-8.18-7.13-15.57-11.1-24.24 c41.91-18.97,83.01-37.58,125.43-56.78c6,12.92,11.83,25.48,18.19,39.17c-21.94,15.76-43.62,31.35-65.31,46.93 c0.3,0.65,0.59,1.29,0.89,1.94c25.5-5.88,51.01-11.75,77.78-17.92c6.52,12.2,11.7,24.99,17.9,38.7 c-41.28,19.92-82.84,37.57-124.66,57.02c-5.36-7.23-7.44-15.54-11.73-24.07c29.46-13.39,58.07-26.4,86.67-39.41 C124.87,1389.59,124.57,1388.94,124.28,1388.29z"></path> <path d="M1177.21,1867.75c12.24-2.46,23.24-4.77,34.29-6.85c9.15-1.72,18.32-3.47,27.55-4.68c19.95-2.6,34.18,8.72,36.79,28.73 c1.44,11.03-0.74,21.08-8.13,30.06c1.5,1.16,2.42,2.1,3.52,2.69c19.23,10.3,27.55,32.56,19.52,52.74 c-3.08,7.74-8.18,13.99-16.33,16.48c-11.11,3.4-22.35,6.46-33.7,8.92c-11.96,2.59-24.12,4.3-37.58,6.64 C1193.91,1957.81,1186.2,1913.43,1177.21,1867.75z M1224.58,1940.04c1.92,10.09,3.5,18.39,5.14,26.98 c8.59,0.06,15.99-1.41,22.89-4.49c5.91-2.64,8.17-8.5,6.71-14.97c-1.53-6.82-6.74-11.69-13.16-11.12 C1239.36,1937.04,1232.64,1938.65,1224.58,1940.04z M1219.79,1914.54c7-1.5,12.94-2.13,18.4-4.1c6.59-2.39,8.65-7.53,7.09-14.46 c-1.64-7.28-5.08-10.65-12.23-10.35c-5.78,0.24-11.51,1.68-18.24,2.75C1216.51,1897.34,1217.97,1905.02,1219.79,1914.54z"></path> <path d="M710.64,1822.85c21.74,6.24,41.97,11.66,61.94,17.9c16,5,25.19,15.18,22.09,38.3c-2.6,19.4-13.32,33.06-34.56,38.16 c14.25,20.1,10.59,43.18,14.22,66.45c-11.6-3.08-21.52-5.61-31.37-8.39c-4.41-1.24-4.53-5.37-4.98-8.96 c-1.57-12.56-2.9-25.15-4.53-37.7c-1.33-10.21-3.09-12.75-11.46-17.54c-8.63,16.37-9.84,35.13-16.54,51.89 c-7.74,0.32-21.57-3.47-31.25-8.66C686.19,1911.05,698.24,1867.59,710.64,1822.85z M727.19,1886.11c7.65,1.67,13.98,3.68,20.43,4.28 c6.34,0.59,10.67-3.49,12.99-10.33c1.94-5.7,0.76-11.3-4.1-14.12c-6.52-3.79-13.54-6.61-21.89-6.16 C732.27,1868.12,730.03,1876.05,727.19,1886.11z"></path> <path d="M1665.03,1663.34c7.85-8.36,14.85-15.81,22.72-24.19c11.46,11.86,22.02,22.77,33.4,34.54c9.21-7.24,17.1-15.6,26.23-24.21 c-9.83-12.51-21.35-22.93-31.53-33.54c7.68-7.9,14.95-15.38,22.97-23.63c31.2,32.3,62.77,64.98,95.11,98.45 c-8.2,7.8-15.59,14.84-23.86,22.71c-13.08-13.47-25.74-26.5-38.81-39.95c-8.95,8.48-17.29,16.38-26.32,24.93 c12.86,13.59,25.13,26.56,37.36,39.48c-4.88,10.36-14.33,14.83-21.95,22.83C1727.17,1729.51,1697.73,1695.26,1665.03,1663.34z"></path> <path d="M439.31,1678.97c-9.92,12.95-19.16,25.02-29.21,38.14c9.42,7.4,18.46,14.5,28.47,22.37c10.07-12.86,19.78-25.26,29.84-38.11 c8.8,6.73,16.67,12.75,25.71,19.68c-27.13,36.87-55.54,72.26-83.52,109.29c-9.44-5.93-17.22-12.9-26.24-19.69 c11.39-15,22.19-29.23,33.79-44.5c-9.52-7.28-18.62-14.23-28.61-21.87c-11.6,14.77-22.78,29.02-34.52,43.97 c-8.7-6.74-16.75-12.96-25.6-19.81c27.96-36.43,55.45-72.24,83.83-109.22C421.9,1665.78,430.16,1672.04,439.31,1678.97z"></path> <path d="M1097.55,2011.04c-0.78-18.95-1.5-36.46-2.23-54.22c-12.17,0-23.32,0-35.23,0c-1.85,18.61,0.33,36.44,0.6,55.55 c-10.21,1.44-20.3,1.49-31.77,2.05c-2.94-45.93-4.08-91.27-5.72-137.2c11.13-2.15,21.24-1.62,32.58-1.2 c0.7,15.97,1.36,31.07,2.04,46.52c11.88,0,23.02,0,35.09,0c2.58-16.31-1.83-32.18,0.68-48.59c10.29,0,20.15,0,31.45,0 c1.66,44.68,3.34,89.68,5.04,135.39C1118.97,2011.99,1108.87,2011.15,1097.55,2011.04z"></path> <path d="M1909.16,1409.24c5.12,0.73,9.48,0.97,13.64,2c25.14,6.22,45.94,19.77,61.7,39.96c21.12,27.07,11.57,64.96-19.26,80.37 c-9.32,4.66-19.38,5.56-29.25,3.66c-29.39-5.65-53.33-20.46-69.89-45.6c-22.11-33.57,3.83-70.06,28.17-77.56 C1899.29,1410.52,1904.64,1410.07,1909.16,1409.24z M1911.6,1442.55c-8.3-0.26-14.27,3.1-18.34,10.1c-4.14,7.11-3.12,13.83,1.1,20.6 c5.46,8.76,13.52,14.66,22.09,19.67c6.79,3.98,14.11,7.52,21.65,9.65c10.02,2.84,18.28-1.32,22.8-9.65c4.6-8.49,3.32-18.14-5.9-25.9 c-9.55-8.04-20.38-14.66-31.05-21.25C1920.49,1443.64,1915.75,1443.57,1911.6,1442.55z"></path> <path d="M795.21,1943.26c0.65-20.53,3.69-38.15,12.18-54.39c8.62-16.49,21.27-27.87,40.59-30.24c22.28-2.73,52.97,8.67,58.63,40.71 c4.85,27.47,0.02,53.85-14.43,77.72c-12.27,20.27-31.33,27.11-56.18,22.13c-20.78-4.17-35.4-19.52-39.18-41.45 C795.87,1952.19,795.57,1946.53,795.21,1943.26z M875.84,1918.17c0-1.66,0.09-3.33-0.01-4.98c-0.78-12.16-6.75-20.19-16.41-22.15 c-9.98-2.02-18.38,2.47-23.57,13.98c-6.07,13.46-9.15,27.79-8.03,42.63c0.57,7.45,3.42,14.22,10.39,18.34 c10.54,6.24,21.97,2.73,28.32-9.42C872.77,1944.63,874.94,1931.5,875.84,1918.17z"></path> <path d="M1903.45,1391.07c4.55-9.29,6.55-19.54,14.11-27.99c11.71,5.11,22.97,9.97,34.19,14.92c14.01,6.19,27.88,12.7,42.04,18.52 c4.46,1.83,9.68,2.79,14.48,2.59c13.51-0.57,20.8-15.47,12.45-26.08c-3.71-4.72-9.41-8.46-14.95-11.05 c-20.21-9.43-40.75-18.16-61.13-27.2c-4.21-1.87-8.32-3.99-13.5-6.48c4.41-9.84,8.55-19.1,12.95-28.93 c2.74,0.94,4.88,1.51,6.88,2.39c22.54,9.94,45.04,19.97,67.58,29.9c11.76,5.18,22.25,11.96,30.19,22.31 c8.46,11.04,11.32,23.02,7.28,36.63c-2.88,9.71-7.13,18.58-13.16,26.71c-7.24,9.76-16.9,14.76-28.9,15.48 c-10.84,0.65-21.35-1.19-31.22-5.48c-25.34-11-50.54-22.33-75.77-33.58C1905.83,1393.23,1904.93,1392.22,1903.45,1391.07z"></path> <path d="M502.71,1723.11c25.71,14.93,50.57,29.37,76.27,44.3c-5.26,8.97-9.86,16.81-14.75,25.13 c-16.25-9.37-31.42-18.11-47.44-27.34c-3.72,6.11-7.12,11.68-11.28,18.51c13.97,9.73,29.5,16.51,43.7,26.75 c-4.65,8.1-8.89,15.47-13.53,23.55c-14.88-8.6-28.9-16.69-44.09-25.47c-4.58,7.62-8.96,14.88-14.08,23.4 c8.36,4.91,16.25,9.53,24.11,14.18c7.97,4.72,15.91,9.49,24.95,14.89c-4.93,8.68-9.63,16.93-14.23,25.02 c-8.11-1.87-65.77-34.8-78.05-44.54C456.91,1802.37,479.61,1763.09,502.71,1723.11z"></path> <path d="M1286.42,1845.97c28.33-7.83,55.81-15.42,83.12-22.97c4.06,6.26,6.9,15.56,8.45,27.66c-16.93,4.82-34.04,9.7-52.03,14.83 c2.08,7.26,3.87,13.51,6.04,21.13c16.29-4.4,31.88-8.61,48.87-13.19c2.54,8.58,5.02,16.94,7.82,26.37 c-16.71,4.81-32.51,9.36-49.33,14.21c2.48,8.99,4.73,17.13,7.21,26.1c18.6-5.01,36.14-9.74,54.75-14.76 c2.81,9.81,5.43,18.94,8.44,29.42c-28.93,8.11-56.99,15.97-86.46,24.23C1310.97,1934.55,1298.85,1890.82,1286.42,1845.97z"></path> <path d="M122.75,1562.73c-6.63-10.42-12.29-19.33-18.39-28.92c5.42-5.84,10.53-11.35,16.08-17.32 c-6.67-10.41-13.07-20.41-19.85-30.99c-7.26,2.28-14.1,4.43-22.09,6.95c-5.69-8.89-11.34-17.7-17.88-27.92 c46.43-13.4,91.61-26.44,137.81-39.77c6.41,9.9,12.67,19.57,19.51,30.14C186.37,1490.65,155.19,1525.97,122.75,1562.73z M174.39,1459.97c-15.48,5.1-30.01,9.52-44.81,15.84c4.47,6.77,8.22,12.46,12.53,19c10.78-10.89,20.76-20.94,30.69-31.04 C173.39,1463.16,173.52,1462.1,174.39,1459.97z"></path> <path d="M604.35,1930.49c-9.8-4.03-19.18-7.89-29.42-12.1c17.33-42.8,34.28-84.66,51.71-127.69c25.28,10.22,49.77,20.12,75.43,30.5 c-3.71,9.27-7.1,17.74-10.86,27.11c-15.4-6.07-29.8-11.75-45.01-17.75c-3.07,7.24-5.87,13.87-9.26,21.86 c12.8,5.52,25.09,10.83,38.19,16.48c-3.48,8.7-6.63,16.57-10.05,25.12c-13.09-5.18-25.07-9.91-37.99-15.02 C618.01,1895.36,614.05,1913.8,604.35,1930.49z"></path> <path d="M229.56,1542.09c15.11-3.49,28.09-6.12,40.84-9.59c6.01-1.63,9.87-0.81,13.49,4.5c4.83,7.07,10.46,13.59,16.83,21.73 c-5.15,1.15-8.85,2.07-12.59,2.8c-20.59,4-41.17,8.13-61.81,11.86c-9.07,1.63-17.11,4.77-24.29,10.75 c-10.99,9.15-22.42,17.77-34.69,27.42c-7.63-7.59-13.31-16.46-20.27-25.23c2.11-1.96,3.86-3.83,5.85-5.4 c10.21-8.03,20.45-16.03,30.76-23.93c5.13-3.94,9.01-8.69,11.68-14.64c9.82-21.87,19.83-43.65,29.8-65.46 c1.08-2.35,2.31-4.64,4.28-8.59c7.19,9.21,13.89,17.29,19.87,25.87c1.23,1.77,0.52,5.77-0.59,8.13 c-5.23,11.15-10.91,22.08-16.41,33.11C231.61,1536.85,231.09,1538.37,229.56,1542.09z"></path> <path d="M1923.74,1588.74c-6.6,8.54-12.83,16.61-19.78,25.6c-3.02-2.1-5.73-3.78-8.21-5.74c-8.63-6.8-17.3-13.57-25.74-20.59 c-7.9-6.57-16.8-10.4-26.93-12.15c-19.36-3.35-38.64-7.15-57.94-10.83c-4.49-0.86-8.93-1.98-15.28-3.4 c7.57-9.5,13.91-17.87,20.8-25.75c1.23-1.4,4.88-1.5,7.17-1.02c11.73,2.47,23.37,5.35,35.04,8.05c2.19,0.51,4.4,0.87,7.93,1.57 c-1.12-3.13-1.64-5.22-2.58-7.08c-5.39-10.7-10.7-21.45-16.42-31.98c-2.23-4.1-2.18-7.18,0.85-10.81 c5.94-7.11,11.53-14.53,17.95-22.7c1.67,2.64,3.02,4.33,3.89,6.23c9.83,21.5,19.74,42.96,29.26,64.59 c3.05,6.93,7.25,12.53,13.23,17.12C1899.09,1569.13,1911,1578.69,1923.74,1588.74z"></path> <path d="M1625.62,1730.53c-9.47,7.1-17.9,13.43-26.93,20.2c-7.16-8.92-13.73-17.11-20.89-26.03c26.63-21.02,52.37-41.35,78.84-62.25 c7.29,9.04,13.9,17.24,21.05,26.11c-9.05,7.41-17.44,14.29-26.29,21.54c21.38,27.18,42.29,53.77,64.13,81.54 c-8.52,6.71-16.49,13-25.62,20.19C1668.51,1784.76,1647.38,1758.05,1625.62,1730.53z"></path> <path d="M327.89,1631.15c-8.37-7.97-15.8-15.06-24.19-23.05c7.81-8.04,15.07-15.53,23.11-23.8c24.84,22.06,48.11,45.1,72.58,68.98 c-7.88,8.02-15.39,15.67-23.76,24.19c-8.12-7.85-15.45-14.95-23.64-22.87c-25.08,23.86-47.57,49.93-73.05,74.41 c-7.44-8.05-14.31-15.5-21.74-23.54C280.29,1681.19,303.59,1656.69,327.89,1631.15z"></path> <path d="M980.9,1908.67c-2.76,34.94-5.42,68.63-8.16,103.34c-11.01-0.72-20.85-1.36-31.89-2.07c1.39-34.71,5.27-68.62,7.02-103.8 c-11.03-0.96-21.46-1.86-33.34-2.89c0.82-10.96,1.6-21.36,2.36-31.5c7.56-1.96,83.32,3.12,100,6.63 c-0.73,10.21-1.48,20.62-2.31,32.2C1003.36,1909.94,992.92,1909.35,980.9,1908.67z"></path> <path d="M1540.62,1741.02c9.53-6.19,17.84-11.59,27.35-17.78c25.28,38.23,49.07,76.86,73.94,116.53 c-9.24,5.94-17.98,11.55-27.44,17.63C1589.71,1818.39,1565.53,1780.28,1540.62,1741.02z"></path> <path d="M159.63,925.18c0.14-479.89,388.44-871.95,872.87-871.41c482.45,0.53,872,391.96,870.93,873.47 c-1.08,485.66-397.26,874.87-879.94,870.44C546.45,1793.3,159.39,1405.46,159.63,925.18z M1566.94,921.7 c-0.94-299.68-244.89-541.53-546.26-536.98c-288.48,4.36-530.07,239.2-528.44,540.57c1.62,299.61,246.42,538.61,546,533.97 C1329.19,1454.75,1566.19,1218.19,1566.94,921.7z M1168.3,244.53c-1.6-8.98-3.24-17.94-4.78-26.93c-4.04-23.64-8-47.29-12.08-70.93 c-1.45-8.4-1.57-8.45-10.08-9.32c-13.92-1.43-27.84-2.87-41.78-4.08c-8.8-0.76-8.79-0.56-12.16,7.9 c-11.36,28.46-22.73,56.91-34.15,85.35c-0.8,2-2.02,3.83-3.05,5.74c-0.63-0.07-1.25-0.13-1.88-0.2 c-2.95-34.85-5.91-69.7-8.83-104.16c-14.04-3.6-51.14-6.86-59.08-5.06c7.68,66.55,15.38,133.21,23.09,200.03 c2.83,0.31,4.45,0.57,6.07,0.65c15.97,0.76,31.94,1.42,47.9,2.26c8.75,0.46,8.77,0.61,12.2-7.92 c13.14-32.77,26.25-65.55,39.43-98.31c0.71-1.77,1.97-3.33,3.86-6.43c1.8,9.84,3.31,17.66,4.65,25.51 c5.05,29.55,10.18,59.09,14.94,88.68c0.89,5.51,3,7.78,8.61,8.77c13.44,2.35,26.71,5.68,40.08,8.42c5.06,1.04,10.22,1.56,15.57,2.35 c11-33.71,21.81-66.24,32.22-98.89c10.35-32.42,21.81-64.51,31.38-98.2c-20.34-2.1-39.08-4.04-58.4-6.03 C1190.93,177.82,1182.5,211.89,1168.3,244.53z M1599.33,566.3c4.29,0.93,7.85,1.66,11.39,2.48c15.04,3.51,29.59,2.51,44.09-3.24 c21.53-8.53,36.79-22.48,42.09-45.7c3.35-14.66,2-29.13-2.48-43.39c-6.91-21.98-19.45-40.87-33.3-58.84 c-15.24-19.78-31.28-38.96-47.03-58.34c-1.37-1.68-3.22-2.97-5.25-4.81c-56.82,42.79-113.17,85.23-170.56,128.45 c16.85,18.1,33.08,35.53,49.71,53.39c15.45-11.98,30.34-23.52,45.83-35.54c3.94,4.28,7.31,8.35,11.1,11.98 c4.49,4.3,4.98,8.66,2.34,14.26c-8.26,17.46-15.83,35.24-24.38,52.55c-3.31,6.71-3.36,12.21,0.06,18.73 c8.82,16.8,17.13,33.88,25.73,50.8c0.64,1.25,1.96,2.15,3.55,3.84C1568.52,623.98,1580.39,593.73,1599.33,566.3z M945.61,329.99 c-25.7-24.01-52.26-43.68-73.46-68.23c0.18-1.17,0.14-1.53,0.28-1.8c0.95-1.75,1.95-3.48,2.91-5.23 c9.03-16.28,12.2-33.25,8.96-51.97c-4.97-28.64-21.6-45.66-49-52.94c-17.53-4.65-35-2.92-52.36,1.49 c-28.94,7.35-55.62,20.3-82.44,32.93c-10.18,4.79-20.38,9.51-30.45,14.2c4.25,16.51,77.52,191.57,82.89,197.66 c20.46-11.22,41.05-22.51,62.17-34.09c-7.87-18.31-15.32-35.65-23.09-53.71c4.24-2.06,8.05-3.36,11.23-5.57 c7.92-5.51,14.32-3.72,21.23,2.29c14.07,12.24,28.76,23.75,42.95,35.85c4.45,3.8,8.58,5.35,14.47,3.57 c7.31-2.21,14.95-3.32,22.42-5.01C917.24,336.53,930.14,333.54,945.61,329.99z M1318.12,347.39c18.93,11.19,37.21,22.07,55.58,32.8 c4.25,2.48,6.26,5.88,5.63,10.68c-0.78,5.93-1.73,11.84-2.67,17.75c-0.79,4.93-1.77,9.83-2.51,14.76 c-0.92,6.12,1.06,10.78,6.28,14.62c13.41,9.87,26.48,20.19,39.74,30.26c1.73,1.31,3.79,2.2,6.31,3.64c0.63-2.38,1.07-3.9,1.42-5.43 c7.95-35.07,15.78-70.16,23.87-105.2c8.24-35.68,16.62-71.33,25.24-106.92c1.33-5.48,0.3-8.44-4.7-11.28 c-26.06-14.81-51.9-29.99-77.85-44.99c-6.87-3.97-7.16-3.94-13.05,1.22c-5.26,4.61-10.29,9.47-15.48,14.17 c-48.87,44.28-97.76,88.54-146.6,132.85c-1.55,1.41-2.69,3.28-4.67,5.75c19.41,8.1,38.09,15.13,56.03,23.71 c8.89,4.25,14.41,2.62,20.78-3.92C1299.58,363.54,1308.57,356.08,1318.12,347.39z M464.17,347.66 c30.2,71.89,59.74,143.38,91.13,215.81c4.21-4.29,7.3-7.2,10.12-10.35c11.55-12.91,22.78-26.11,34.64-38.73 c4.2-4.46,4.36-8.17,2.02-13.33c-4.67-10.31-8.57-20.97-13.34-31.23c-2.26-4.86-1.41-7.66,2.68-10.99 c14.22-11.55,28.12-23.5,42.15-35.28c8.16-6.85,8.15-6.8,17.22-1.85c8.77,4.78,17.61,9.42,26.36,14.24 c5.27,2.9,9.78,2.18,14.75-1.23c14-9.62,28.31-18.79,42.46-28.18c1.59-1.06,3-2.39,4.73-3.79C673.77,361.27,608.94,320.1,544,278.86 C517.14,302.01,491.2,324.37,464.17,347.66z M701.07,1656.83c7.59-0.85,15.37-0.89,22.73-2.68 c92.8-22.52,111.71-129.22,60.31-183.19c-33.03-34.67-72.71-51.01-120.02-37.4c-41.51,11.95-70.2,39.22-80.42,82.28 c-9.81,41.34,2.4,77.46,32.2,106.75C639.08,1645.42,668.16,1656.3,701.07,1656.83z M405.95,846.04c1.74-0.71,2.42-0.86,2.95-1.23 c1.38-0.93,2.75-1.88,4.02-2.95c27.87-23.57,44.69-53.49,50.13-89.48c2.86-18.94,1.87-37.69-4.88-56.12 c-15.34-41.91-73.24-55.66-103.42-22.71c-4.48,4.89-8.95,9.95-12.49,15.52c-6.77,10.67-12.42,22.07-19.43,32.58 c-3.58,5.37-8.46,10.43-13.86,13.91c-7.84,5.06-15.07,2.51-18.89-5.96c-1.85-4.1-2.73-8.95-2.84-13.49 c-0.48-20.54,8.69-37.22,21.93-52.05c3.93-4.4,8.23-8.48,12.77-13.11c-11.15-10.51-22.99-18.68-35.33-25.8 c-1.61,1.12-2.52,1.58-3.2,2.26c-25.56,25.37-40.75,55.77-43.58,91.83c-1.74,22.16,1.75,43.28,16.2,61.23 c23.11,28.73,64.2,36.5,93.73,7.03c6.72-6.7,11.85-15.1,17.15-23.09c4.4-6.64,7.38-14.26,12.06-20.66 c3.63-4.98,8.42-9.49,13.56-12.9c8.84-5.87,15.8-3.23,19.4,6.84c1.32,3.68,2.29,7.92,1.82,11.71c-0.88,7.19-2.05,14.57-4.63,21.28 c-7.02,18.27-20.64,31.59-35.08,44.12c-2.35,2.04-4.61,4.17-7.62,6.91C380.47,830.35,393.17,838.17,405.95,846.04z M1337.48,1618.46 c-5.06-12.49-9.74-24.01-14.62-36.06c23.73-12.2,48.51-20.04,70.74-33.43c-5.56-13.9-11.18-26.45-19.34-37.76 c-24.14,11.71-47.21,22.5-72.2,30.6c-4.6-10.87-8.81-20.8-13.37-31.57c27.84-14.12,54.72-27.76,82.5-41.85 c-7.55-13.22-13.81-25.85-22.43-36.07c-45.8,22.32-90.25,43.99-135.27,65.94c25.34,64.47,50.6,128.76,76.16,193.78 c54.67-19.66,105.47-44.66,156.51-70.91c-7.38-13.72-14.11-26.22-21.37-39.72C1395.4,1593.87,1367.08,1605.89,1337.48,1618.46z M1501.17,1468.05c9.95-8.61,19.4-16.96,29.03-25.08c9.85-8.31,19.89-16.4,29.68-24.44c-6.91-11.53-20.63-26.27-29.47-31.74 c-19.05,17.04-38.72,33.76-60.14,49.44c-7.31-9.68-15.15-17.64-21.68-27.14c22.9-21.35,44.93-41.88,66.58-62.06 c-5.6-6-10.13-11.32-15.16-16.13c-5.18-4.95-9.78-10.81-15.86-12.99c-37.36,33.97-74.01,67.3-111.14,101.07 c42.45,54.81,84.78,109.48,127.6,164.77c46.4-34.46,88.38-72.14,129.95-111.97c-10.87-11.26-20.95-21.7-31.36-32.48 c-24.94,20.47-49.03,40.24-73.73,60.52c-4.31-5.24-8.01-9.47-11.4-13.93C1509.85,1480.36,1505.91,1474.63,1501.17,1468.05z M1804.99,771.08c1.3-9.71,3.06-18.18,3.47-26.71c1.71-36.16-6.61-69.34-30.27-97.73c-11.34-13.6-25.56-22.04-43.06-25.03 c-30.19-5.16-57.74,11.6-66.95,40.77c-3.97,12.56-5.22,25.32-3.82,38.45c0.85,7.93,1.07,15.93,1.3,23.91 c0.09,2.95-0.26,6.02-1.02,8.86c-1.62,6.05-4.65,11.03-11.36,12.68c-6.95,1.7-12.61-0.56-16.81-5.99c-2.82-3.64-5.4-7.63-7.27-11.83 c-8.11-18.21-7.09-36.96-2.59-55.79c1.37-5.72,3.06-11.37,4.78-17.71c-2.96-0.35-5.17-0.82-7.37-0.83 c-8.99-0.06-17.98-0.03-26.97,0.08c-10.53,0.13-10.8,0.25-13.75,10.46c-14.34,49.6-1.27,92.51,32.03,130.41 c9.4,10.7,21.57,16.85,35.35,19.15c22.31,3.72,42.52-0.09,57.58-18.95c13.02-16.31,19.87-34.42,16.73-55.65 c-1.12-7.57-1.87-15.22-2.24-22.86c-0.47-9.79,1.05-19.3,6.48-27.76c4.36-6.79,8.86-8.19,16.07-4.65c2.92,1.43,5.63,3.58,7.95,5.88 c7.39,7.33,10.64,16.67,12.43,26.7c2.63,14.72,0.43,29.2-1.82,43.69c-0.39,2.49-0.59,5.02-1,8.54 C1776.9,769.82,1790.08,770.41,1804.99,771.08z M1033.43,1525.36c4.65,70.07,9.26,139.68,13.91,209.78 c24.3,3.15,46.78-0.54,69.72-3.98c1.34-24.68-3.57-48.35-2.46-72.36c27.28-3.57,53.66-6.34,80.42-12.44 c-2.69-16.45-5.23-32.04-7.87-48.23c-14.1,1.9-26.9,3.74-39.73,5.33c-13.06,1.63-26.12,4.17-39.93,2.15 c-0.97-11.67-1.86-22.52-2.84-34.28c3.8-0.75,6.95-1.51,10.14-1.97c23.09-3.28,46.18-6.47,69.26-9.79c3.82-0.55,7.57-1.61,12.11-2.6 c-3.7-17.76-7.18-34.48-10.64-51.09C1134.35,1512.44,1084.6,1518.81,1033.43,1525.36z M894.04,1653.03 c27.31,4.46,53.46,8.74,80.86,13.21c2.55-16.95,4.9-32.56,7.41-49.27c-13.76-2.4-26.49-4.36-39.11-6.88 c-12.94-2.58-26.24-3.85-39.26-9.73c2.53-11.27,4.97-22.18,7.68-34.27c30.45,5.04,60.46,10,91.6,15.15 c1.97-18.17,3.81-35.17,5.69-52.49c-50.41-9.29-99.99-18.43-150.86-27.81c-16.94,68.27-33.8,136.19-50.85,204.85 c22.91,7.59,44.55,14.59,68.54,16.13C881.88,1698.78,887.84,1676.34,894.04,1653.03z M607.18,1423.65 c12.56-6.28,24.1-12.11,35.7-17.81c4.29-2.11,4.06-5.17,3.01-9.17c-10.67-41.04-56.09-91.81-117.79-89.65 c-38.4,1.34-69.84,15.56-90.68,49.19c-9.12,14.71-13.97,30.92-15.64,48.05c-6.92,70.87,44.63,120.93,110.85,127.32 c3.78,0.37,6.29-0.89,8.01-4.4c4.84-9.86,9.95-19.6,14.78-29.46c0.96-1.96,1.18-4.28,1.65-6.09c-0.77-0.72-0.98-1.1-1.23-1.12 c-2.63-0.25-5.25-0.47-7.89-0.66c-25.61-1.81-44.5-14.49-57.68-36.06c-2.21-3.62-3.97-7.89-4.58-12.06 c-4.86-33.29,12.51-58.1,37.26-69.54c11.46-5.3,23.44-6.88,35.96-2.68c19.92,6.69,33.25,20.28,42.13,38.77 C603.19,1412.71,604.74,1417.45,607.18,1423.65z M342.45,610.42c10.78-17.71,20.45-34.98,32.22-51.7 c44.75,27.83,88.42,54.98,132.55,82.43c13.37-18.48,26.3-35.62,34.32-56.84c-43.23-28.48-85.91-56.6-128.6-84.71 c8.81-20.1,23.43-35.35,31.73-55.09c-15.45-9.02-30.25-17.65-45.94-26.81c-33.78,55-66.81,108.77-100.36,163.4 C313.47,591.14,327.49,600.47,342.45,610.42z M1628.17,1071.15c-0.74,1.33-1.48,2.65-2.22,3.98c1.99,1.16,4.15,2.12,5.96,3.52 c12.09,9.39,24.08,18.92,36.15,28.33c8.56,6.67,8.61,6.62,5.44,17.32c-3.03,10.21-6.15,20.39-9.1,30.63 c-1.79,6.22-3.32,12.52-5.42,20.49c4.14-2.07,6.53-3.07,8.73-4.4c13.09-7.93,26.28-15.73,39.14-24.02 c6.47-4.17,11.53-4.15,17.86,0.78c11.01,8.58,22.82,16.15,34.31,24.11c2.34,1.62,4.8,3.08,8.48,5.44c-0.38-3.19-0.42-4.78-0.77-6.29 c-3.88-16.52-7.43-33.13-11.91-49.49c-1.72-6.26-0.13-9.71,4.63-13.53c13.49-10.84,26.62-22.13,39.83-33.33 c1.29-1.09,2.09-2.76,4.06-5.44c-22.84,0-44.05,0-65.72,0c-8.33-18.76-12.48-38.6-21.57-58.4c-1.56,3.41-2.42,5.09-3.11,6.83 c-6.28,15.77-12.65,31.5-18.73,47.35c-1.94,5.06-4.88,7.31-10.47,7.01c-10.97-0.59-21.96-0.7-32.94-0.87 C1643.27,1071.05,1635.72,1071.15,1628.17,1071.15z M345,1012.02c-0.85,0.14-1.7,0.28-2.54,0.41c-0.61,1.52-1.26,3.02-1.84,4.55 c-5.81,15.25-11.75,30.45-17.33,45.78c-2.25,6.17-5.73,8.63-12.6,8.42c-16.64-0.51-33.32-0.16-49.98-0.03 c-1.97,0.01-3.94,0.79-7.09,1.47c2.29,2.17,3.39,3.38,4.66,4.38c13.34,10.52,26.59,21.15,40.12,31.43 c4.67,3.54,5.82,6.92,3.94,12.72c-5.02,15.52-9.26,31.3-13.74,46.99c-0.51,1.79-0.65,3.68-1.3,7.53 c8.03-4.77,14.54-8.53,20.95-12.45c8.81-5.39,17.75-10.59,26.24-16.45c6.86-4.73,12.45-4.11,18.81,1.06 c7.48,6.08,15.61,11.38,23.55,16.87c5.62,3.89,11.41,7.54,18.45,12.17c-0.4-3.42-0.44-5.02-0.8-6.55 c-3.87-16.54-7.44-33.15-11.87-49.54c-1.58-5.86-0.18-9.19,4.25-12.77c13.47-10.89,26.66-22.12,39.91-33.29 c1.31-1.1,2.26-2.64,4.16-4.93c-3.03-0.2-4.61-0.38-6.19-0.39c-17.65-0.11-35.31-0.35-52.96-0.19c-5.16,0.05-7.96-1.64-9.35-6.72 c-2.03-7.38-4.51-14.64-7.03-21.87C352.07,1031.05,348.49,1021.55,345,1012.02z"></path> <path d="M1071.55,1257.41c3.17-0.87,5.87-1.9,8.65-2.31c4.59-0.67,6.82-3.18,8.02-7.59c3.23-11.89,6.66-23.73,10.36-35.49 c1.51-4.78,1.18-8.33-3.4-11.09c-6.66-4.01-9.05-10.35-9.14-17.8c0-0.33-0.03-0.67-0.04-1c-0.15-5.97,1.64-13.1-1.02-17.6 c-2.58-4.36-9.73-6.02-15.66-9.3c0.96-3.21,1.52-6.86,3.1-9.98c2.87-5.65,0.93-9.52-3.58-12.9c-0.8-0.6-1.54-1.27-2.33-1.89 c-13.31-10.41-15.48-10.26-26.76,1.88c-1.56,1.68-3.16,3.33-5.55,5.84c-4.31-4.03-8.49-7.66-12.32-11.62 c-2.65-2.75-5.36-3.71-8.91-2.17c-1.53,0.66-3.14,1.11-4.69,1.72c-14.28,5.66-16.57,10.86-11.27,25.4c0.56,1.54,1.06,3.11,1.93,5.65 c-5.55,2.36-10.95,4.65-17.39,7.38c0,6.66-0.28,13.58,0.08,20.47c0.33,6.2-1.27,11.17-6.71,14.52c-5.67,3.5-6.77,8.5-5.26,14.68 c1.74,7.11,2.75,14.42,4.73,21.46c4.25,15.09,5.88,16.65,20.04,22.14c-1.54,4.47-4.15,8.91-4.33,13.44 c-0.19,4.82,1.89,9.74,3.02,14.6c2.66,11.36,0.87,21.55-9.33,28.35c-7.68,5.12-15.62,10.53-24.25,13.44 c-41.1,13.88-83.09,13.58-125.4,6.32c-26.65-4.58-47.44-18.52-64.43-38.88c-11.41-13.67-20.4-28.83-26.85-45.41 c-12.13-31.16-15.55-63.15-9.25-96.18c6.01-31.53,23.89-52.96,53.72-64.24c16.51-6.24,33.27-11.83,50-17.45 c29.5-9.91,55.41-25.87,78.94-46.02c19.48-16.69,38.96-33.39,58.73-49.73c11.67-9.64,24.9-16.6,39.72-20.35 c16.41-4.16,32.21-2.9,47.87,3.76c25.93,11.03,47.92,27.86,67.39,47.58c34.14,34.58,74.6,57.6,120.9,71.27 c10.83,3.2,21.45,7.28,31.85,11.71c29.77,12.66,47.18,35.7,52.15,67.17c9.12,57.8-6.51,108.14-48.28,149.77 c-16.41,16.35-36.41,25.47-59.15,28.86c-38.4,5.72-76.46,3.65-114.04-5.84c-7.35-1.86-14.56-4.93-21.26-8.51 c-13.04-6.96-19.21-18.07-17.24-33.07c0.61-4.62,1.2-9.32,2.59-13.73c1.8-5.71,1.57-10.36-3.82-13.92 C1072.94,1260.31,1072.63,1259.18,1071.55,1257.41z M1109.5,1221.57c-4.75,13.53-9.46,26.57-10.42,40.75 c-0.93,13.71,4.38,24.22,15.77,31.23c6.74,4.14,14.14,7.5,21.64,10.04c22.97,7.79,46.53,7.89,70.09,3.23 c16.2-3.2,31.26-9.54,44.12-20.15c14.8-12.2,24.82-27.19,23.6-47.25c-1.95-32.28-29.7-55.75-61.93-52.76 c-15.04,1.39-28.08,7.65-39.99,16.75c-5.8,4.42-11.73,8.89-18.21,12.13c-8.3,4.15-14.63,2.59-20.53-4.45 c-3.59-4.28-6.65-9.19-9.08-14.24c-10.4-21.61-20.32-43.44-30.72-65.04c-6.12-12.7-14.19-24.12-24.82-33.54 c-12.83-11.36-27.7-15.64-44.52-11.99c-19.62,4.26-35.03,14.73-44.17,32.83c-9.29,18.43-17.42,37.44-26.63,55.91 c-6.08,12.19-13,23.98-19.94,35.72c-1.55,2.62-4.56,5.71-7.24,6.08c-8.53,1.16-17.42,2.13-23.5-6.58c-1.68-2.41-4.17-4.3-6.42-6.27 c-21.64-18.83-52.55-21.68-77.3-7.16c-25.88,15.18-33.48,43.71-18.68,69.87c5.53,9.78,13.02,17.58,22.51,23.61 c29.01,18.43,60.64,22.84,94.04,17.8c17.3-2.61,32.41-9.61,44.66-22.45c5.88-6.16,8.49-13.18,8.47-21.66 c-0.03-12.33-4.24-23.46-8.64-34.66c-1.68-4.29-4.16-6.3-8.71-6.79c-5.16-0.55-10.24-1.83-16-2.91c1.28-2.92,1.99-4.74,2.86-6.48 c13.97-28.01,27.92-56.05,42.01-84c2.54-5.04,5.55-9.87,8.62-14.62c19.42-30.1,66.02-27.93,84.61-2.84 c6.11,8.24,11.81,17.07,16.01,26.39c12.04,26.7,22.09,54.32,37.91,79.21c0.4,0.63-0.1,1.83-0.23,3.31 C1122.38,1220.91,1116.17,1221.23,1109.5,1221.57z"></path> <path d="M1313.75,725.54c-186.95-33.58-372.41-31.54-557.36-0.33c-0.81-1.72-1.37-2.33-1.33-2.89c2.68-32.51,4.81-65.08,13.33-96.82 c7.68-28.62,21.35-53.49,46.7-69.73c13.61-8.73,28.66-15.61,43.77-21.52c31.22-12.22,64.04-17.91,97.37-20.71 c48.88-4.12,97.83-4.49,146.74-1.27c36,2.37,71.56,8.04,105.35,21.3c14.51,5.69,28.86,12.29,42.29,20.16 c25.64,15.03,41.22,38.07,49.14,66.58c7.18,25.84,9.72,52.34,11.98,78.9C1312.43,707.42,1313,715.65,1313.75,725.54z"></path> <path d="M1252.03,1071.35c-17.34-5.68-32.29-14.25-47.01-23.37c-22.34-13.84-40.69-32.19-58.51-51.15 c-19.62-20.86-38.27-42.66-60.41-61.03c-10.07-8.36-20.85-15.48-33.15-20.12c-13.38-5.05-26.5-4.78-39.85,0.82 c-19.53,8.2-34.9,21.8-49.49,36.54c-22.49,22.73-44.76,45.67-67.42,68.22c-20.25,20.15-42.9,36.92-70,46.92 c-9.83,3.63-9.89,3.59-16.25-4.98c-13.56-18.25-25.14-37.71-34.17-58.55c-3.27-7.54-5.51-15.73-6.84-23.86 c-1.81-11.05,2.3-20.59,11.6-26.94c6.26-4.28,13.04-8.2,20.13-10.79c36.73-13.44,72.35-29.07,104.32-51.92 c18.42-13.16,36.18-27.25,54.48-40.58c9.4-6.85,19-13.56,29.1-19.29c27.83-15.8,56.69-17.17,84.94-1.93 c17.22,9.28,33.27,20.77,49.56,31.7c24.6,16.52,48.73,33.73,73.46,50.04c15.35,10.12,32.56,16.63,49.81,22.91 c11.87,4.32,23.74,8.85,35.1,14.35c18.6,9,21.76,17.02,16.14,37.16c-5.14,18.42-13.95,35.28-22.92,52 c-4.71,8.78-10.34,17.08-15.76,25.46C1256.94,1065.93,1254.38,1068.5,1252.03,1071.35z"></path> <path d="M1306.95,981.29c1.87-11.76,3.45-23.58,5.68-35.27c6.35-33.33,3.77-66.37-2.56-99.34c-0.18-0.94-0.69-1.83-1.12-2.71 c-0.08-0.17-0.49-0.19-1.67-0.62c-1.3,6.48-2.61,12.84-3.84,19.23c-2.9,15.07-6.09,30.01-13.44,43.76 c-11.14,20.84-25.39,27.52-47.93,20.65c-10.12-3.08-19.95-7.56-29.34-12.48c-29.33-15.37-55.42-35.7-82.39-54.69 c-15.8-11.12-31.82-21.96-48.1-32.34c-7.54-4.81-15.83-8.51-23.99-12.23c-18.23-8.32-36.72-7.64-53.92,1.94 c-17.42,9.69-34.03,20.89-50.69,31.89c-30.86,20.37-61.18,41.57-92.39,61.39c-11.39,7.24-24.26,12.75-37.15,16.89 c-22.27,7.16-36.35-0.09-45.96-21.44c-7.73-17.19-10.97-35.61-14.81-53.86c-0.6-2.86-1.24-5.71-2.02-9.28 c-1.31,1.11-2.45,1.59-2.52,2.2c-2.34,19.83-4.98,39.63-6.7,59.51c-1.54,17.79,2.08,35.14,6.02,52.43 c1.83,8.03,2.53,16.31,4.01,26.27c-3.18-1.75-4.94-2.3-6.14-3.44c-12.02-11.37-17.79-24.86-16.97-41.93 c2.62-54.26,4.44-108.55,6.6-162.83c0.1-2.63,0.46-5.24,0.78-8.81c10.76-2.13,21.39-4.47,32.1-6.32 c86.23-14.91,173.13-22.03,260.63-22.92c64.11-0.65,127.99,2.13,191.44,11.14c28.31,4.02,56.2,10.99,84.34,16.31 c6.02,1.14,8.49,3.91,8.55,9.97c0.09,8.99,1.13,17.98,1.14,26.96c0.04,45.34,0.85,90.66,4.92,135.83 c1.19,13.16-1.69,24.26-11.07,33.75c-3.38,3.42-5.99,7.61-8.95,11.45C1308.64,981.99,1307.79,981.64,1306.95,981.29z M818.35,882.18 c3.18,0.68,4.38,1.05,5.61,1.19c16.59,1.85,30.57-4.66,43.69-13.8c28.68-19.99,57.99-38.98,88.84-55.49 c11.72-6.28,23.68-12.13,35.6-18.02c8.98-4.43,13.37-11.58,13.56-21.49c0.09-4.79-1.8-7.49-6.98-7.53 c-9.97-0.08-19.95-0.82-29.9-0.49c-21.61,0.7-43.26,1.34-64.81,3.02c-36.8,2.86-73.55,6.47-110.31,9.85 c-2.47,0.23-4.87,1.19-7.85,1.96c8.64,34.17,21.62,65.55,39.86,94.46C823.17,877.99,821.47,879.46,818.35,882.18z M1239.93,875.4 c18.41-30.69,30.03-62.55,34.16-98.03c-3.56-0.37-6.76-0.79-9.96-1.03c-38.51-2.82-77-5.9-115.54-8.29 c-22.24-1.38-44.56-1.77-66.84-2.27c-5.84-0.13-11.72,1-17.18,1.52c-3.08,15.34-0.55,21.62,11.29,28.74 c3.98,2.39,8.3,4.2,12.48,6.25c4.78,2.35,9.78,4.31,14.32,7.05c35.88,21.69,71.67,43.55,107.52,65.29 c4.54,2.75,9.15,5.56,14.06,7.52c8.13,3.26,16.31,2.56,26.68-0.73C1246.2,878.85,1243.71,877.48,1239.93,875.4z"></path> <path d="M1333.12,775.89c7.76-0.31,14.02-0.78,20.28-0.76c5.92,0.02,10.08,3.2,12.32,8.6c1.4,3.37,2.89,6.83,3.46,10.39 c6.21,38.89,10.46,77.88,4.28,117.21c-1.51,9.6-4.21,18.9-11.03,26.32c-3.85,4.19-8.64,6.45-14.36,4.66 c-6.09-1.91-10.48-5.76-11.57-12.44c-0.32-1.96-0.41-3.97-0.45-5.97c-0.73-30.95-1.45-61.9-2.13-92.85 c-0.32-14.64-0.55-29.29-0.79-43.94C1333.07,783.83,1333.12,780.55,1333.12,775.89z"></path> <path d="M1400.27,999.99c5.18,3.64,7.22,8.92,8.74,14.36c4.7,16.83,4.89,33.89-1.68,50.04c-5.86,14.41-12.93,28.49-20.97,41.8 c-8.23,13.64-18.21,26.24-27.58,39.18c-4.88,6.74-9.68,10.53-17.19,14.23c-4.38-13.99-9.11-27.77-12.79-41.82 c-0.83-3.17,1.31-7.69,3.23-10.91c13.48-22.58,27.38-44.91,40.87-67.48c4.6-7.7,8.48-15.83,12.59-23.83 C1388.89,1008.95,1393.02,1003.11,1400.27,999.99z"></path> <path d="M671.78,999.55c3.02,4.91,5.7,9.08,8.2,13.35c17.66,30.17,35.05,60.5,53.07,90.45c4.76,7.9,5.84,15.15,2.45,23.56 c-4.34,10.74-8.31,21.62-12.87,33.57c-2.71-2.5-4.72-4.05-6.36-5.92c-24.37-27.86-42.82-59.4-56.42-93.64 c-3.72-9.35-4.9-20.02-5.57-30.19C653.26,1015.61,657.4,1009.13,671.78,999.55z"></path> <path d="M735.71,776.28c0.66,9.21,1.79,16.81,1.65,24.38c-0.54,27.92-1.48,55.83-2.3,83.74c-0.24,8.31-0.51,16.62-0.9,24.92 c-0.26,5.64-0.53,11.3-1.2,16.91c-1.32,11.06-4.53,15.01-12.07,15.51c-8.94,0.6-17.39-4.68-19.66-13.41 c-2.42-9.3-4.89-18.78-5.52-28.31c-2.24-33.66,0.29-67.13,5.99-100.35c1-5.84,3.24-11.51,5.3-17.11c1.78-4.82,5.58-7.48,10.78-7.36 C723.34,775.33,728.91,775.85,735.71,776.28z"></path> <path d="M803.6,1073.93c-1.58,1.28-2.03,1.86-2.61,2.07c-16.86,6.18-18.24,5.85-28.5-8.73c-18.96-26.96-36.24-54.93-50.27-84.8 c-2.24-4.76-3.96-9.76-6.26-15.51c5.48-3.69,10.56-7.12,16.78-11.31C756.01,995.9,788.38,1029.53,803.6,1073.93z"></path> <path d="M723.41,950.59c-6.44,11.25-15.36,19-26.06,24.8c-6.73,3.65-13.68,6.9-20.53,10.33c-18.83,9.41-28.8,24.35-27.62,45.69 c0.57,10.27,2.17,20.49,3.34,30.73c0.28,2.44,0.68,4.87,1.03,7.3c-0.63,0.31-1.26,0.61-1.89,0.92c-3.27-4.78-6.99-9.32-9.75-14.39 c-16.37-30-10.92-66.44,14.22-89.69c9.72-8.99,21.05-16.25,31.82-24.06c1.63-1.18,4.48-1.96,6.31-1.4 C703.74,943.69,713.05,947.05,723.41,950.59z"></path> <path d="M1285.66,1082.4c-7.59-3.04-13.69-5.48-19.65-7.87c1.54-14.96,47.89-90.36,72.33-117.7c5.04,3.77,10.16,7.6,15.82,11.83 C1335.37,1009.33,1308.09,1043.86,1285.66,1082.4z"></path> <path d="M1414.73,1069.45c2.1-10.58,4.09-19.58,5.63-28.65c3.22-19.03-2.23-34.95-18.01-46.58c-9.09-6.7-18.66-12.72-27.85-19.28 c-8.1-5.78-16.03-11.82-23.9-17.92c-1.7-1.31-2.82-3.37-5.2-6.33c10.32-3.58,19.56-6.94,28.92-9.89c1.6-0.5,3.98,0.29,5.59,1.2 c18.4,10.49,35.08,22.93,46.26,41.5c16.28,27.05,13.38,59.96-7.4,83.38C1418.15,1067.56,1417.17,1067.92,1414.73,1069.45z"></path> <path d="M1569.74,467.67c11.86-11.31,22.81-21.32,37.29-28.86c7.44,9.19,15.42,17.71,21.8,27.29c6.7,10.06,6.07,18.32-0.43,25.69 c-7.63,8.65-17.55,11.88-28.8,9.88c-2.61-0.46-5.27-2.9-7.08-5.11C1584.97,487.34,1577.73,477.86,1569.74,467.67z"></path> <path d="M769.61,261.23c-6.46-14.16-12.57-27.56-19.03-41.74c12.92-7.64,24.93-15.05,39.27-17.36c8.14-1.31,14.2,2.41,18.72,8.77 c4.4,6.21,5.76,13.28,4.92,20.82c-0.75,6.67-3.28,12.03-9.93,14.84C792.63,251.17,781.77,255.96,769.61,261.23z"></path> <path d="M1353.62,309.58c16.76-15.16,32.56-29.43,48.35-43.71c0.66,0.38,1.32,0.77,1.98,1.15c-2.96,21.69-8.16,42.89-14.51,65.31 C1376.85,325.32,1365.46,318.56,1353.62,309.58z"></path> <path d="M596.89,388.96c-11.76,9.38-21.97,17.53-33.44,26.69c-9.69-20.93-17.91-40.61-26.52-63.01 C558.68,363.35,576.48,376.07,596.89,388.96z"></path> <path d="M644.83,1556.19c3.3-30.23,15.01-55.64,43.88-69.65c19.84-9.62,44.47-0.42,54.59,19.23c9.38,18.22,8.39,36.73,0.05,54.81 c-6.6,14.32-15.43,27.23-29.57,35.41c-14.44,8.35-29.4,10.8-44.47,1.94C653.64,1588.7,643.85,1575.69,644.83,1556.19z"></path> </svg> 